PathFileType	4	(X/Y/Z)	/Users/visionmauri/4_2_2_f_1_Sports2D/4_2_2_f_1_Sports2D_m_person00.trc
DataRate	CameraRate	NumFrames	NumMarkers	Units	OrigDataRate	OrigDataStartFrame	OrigNumFrames
30.0	30.0	8	22	m	30.0	203	325
Frame#	Time	Hip			RHip			RKnee			RAnkle			RBigToe			RSmallToe			RHeel			LHip			LKnee			LAnkle			LBigToe			LSmallToe			LHeel			Neck			Head			Nose			RShoulder			RElbow			RWrist			LShoulder			LElbow			LWrist			
		X1	Y1	Z1	X2	Y2	Z2	X3	Y3	Z3	X4	Y4	Z4	X5	Y5	Z5	X6	Y6	Z6	X7	Y7	Z7	X8	Y8	Z8	X9	Y9	Z9	X10	Y10	Z10	X11	Y11	Z11	X12	Y12	Z12	X13	Y13	Z13	X14	Y14	Z14	X15	Y15	Z15	X16	Y16	Z16	X17	Y17	Z17	X18	Y18	Z18	X19	Y19	Z19	X20	Y20	Z20	X21	Y21	Z21	X22	Y22	Z22
203	6.787551440329218	1.3875714097133003	0.9357732053117565	0.0301	1.296326869142812	0.9735119676906273	0.0301	1.1599159564551518	0.6770829561283593	0.129	1.0168042923376184	0.2772683758015648	0.023	0.9862904361639817	0.13794418301671474	0.2179	0.9375063565873889	0.16340559774370597	0.1804	1.029139892520505	0.20499741315274908	-0.0119	1.481222422022433	0.8879854518323834	0.0301	1.3685393187477108	0.5401801707195317	0.129	1.2561241607360671	0.15700505000577428	0.023	1.2702531888058142	0.04223854421130327	0.2179	1.3203440310024934	0.03953968635443225	0.1804	1.2158069445628255	0.10661936764579208	-0.0119	1.5932622893976607	1.4084527268315197	0.0008	1.6635538615818821	1.6404987007757879	0.0655	1.5996356681697015	1.4580298798384372	0.1076	1.417462958070349	1.4180478927560984	-0.01275	1.2309833070170526	1.2174821004352516	0.0702	1.032331162603986	1.065208085242828	0.1076	1.7527173777604736	1.3141770267602941	-0.01275	1.7189876772570494	1.0458813007191836	0.0702	1.668864397551486	0.8626642472577934	0.1076
204	6.820987654320987	1.3904337356220473	0.9330770580712311	0.0301	1.2966570290899986	0.9707569147536221	0.0301	1.162489757569569	0.6792772356256866	0.129	1.0073546593980025	0.2635682667168852	0.023	0.9766296666435966	0.13308933311654192	0.2179	0.9298674106895779	0.16524416582572882	0.1804	1.0227147974567843	0.1875290914320946	-0.0119	1.4833959406626291	0.8863269201845172	0.0301	1.3700714666642408	0.5400273950837629	0.129	1.256441985832409	0.1568453545936256	0.023	1.2700186363376649	0.042537400628232205	0.2179	1.3220916315003428	0.039865106111759904	0.1804	1.2182647311772596	0.10617112473517139	-0.0119	1.5919122782023587	1.4084539628281434	0.0008	1.661212033501918	1.6420089127656476	0.0655	1.5988787548471626	1.459958732500105	0.1076	1.4179247844171639	1.418991448739654	-0.01275	1.230185281192505	1.2169522165834785	0.0702	1.0313812762262868	1.0638189993099325	0.1076	1.7515055719589887	1.3146153189655714	-0.01275	1.7139100093199857	1.0483946044362975	0.0702	1.6683156938351378	0.8588170837610278	0.1076
205	6.854423868312757	1.3919032228373787	0.9330149233385892	0.0301	1.297520198585227	0.9698924117996933	0.0301	1.1661884245568772	0.6878814289233692	0.129	1.0027582035568645	0.25779007908897167	0.023	0.9697256523148564	0.13631885785176506	0.2179	0.9293732089610802	0.18117566919334593	0.1804	1.0200140249518923	0.17756599714262034	-0.0119	1.4860656367010354	0.8851781371622846	0.0301	1.3711436783142086	0.5382897580476877	0.129	1.2571190108662655	0.15644831495595116	0.023	1.2697207280994747	0.04271344800026897	0.2179	1.323925607826885	0.04018604469845228	0.1804	1.2191509837582832	0.10602989245236401	-0.0119	1.5896068686428793	1.4091811555802067	0.0008	1.6590527077607127	1.6420746266149566	0.0655	1.59578494194796	1.4625812632173623	0.1076	1.4173185593893627	1.4194815475407747	-0.01275	1.2287010877790818	1.216377449478773	0.0702	1.0310330920088138	1.063125464133885	0.1076	1.7490711317093892	1.315100394797327	-0.01275	1.7114839173229048	1.0516232752754173	0.0702	1.6685739377999844	0.8552124348608755	0.1076
206	6.887860082304527	1.392601044763902	0.9333145731700598	0.0301	1.2979923744928614	0.967560084663609	0.0301	1.167708443749773	0.6900529039126375	0.129	1.001070193439496	0.2550924378584158	0.023	0.9652804216440742	0.14181928217138304	0.2179	0.9306025681672833	0.19296595425816926	0.1804	1.0192698907135591	0.17097443278000735	-0.0119	1.4882237547852204	0.883437966110055	0.0301	1.3714643541277738	0.5352944150562702	0.129	1.2573132656068249	0.1552535293488624	0.023	1.2694278882425385	0.043318083935442425	0.2179	1.3247313806288796	0.04039726839024628	0.1804	1.2185757749672919	0.10486157568227916	-0.0119	1.586926055712293	1.4095530626522415	0.0008	1.6569390425969168	1.6423916166101877	0.0655	1.5911024532792044	1.4660967449074964	0.1076	1.4147967807190054	1.4195931243010047	-0.01275	1.2275712018667229	1.2160129810837754	0.0702	1.031064397480085	1.0630204206936256	0.1076	1.7463868666787206	1.3149505678086992	-0.01275	1.7110584695852038	1.0532840909003518	0.0702	1.6688798491008021	0.8522387724161966	0.1076
207	6.921296296296297	1.3937708313459642	0.9307811280551879	0.0301	1.2974824196807493	0.9625942098913642	0.0301	1.165590963636575	0.6786106301606979	0.129	0.9999751416946271	0.2506999677567521	0.023	0.9626727435187947	0.14447989622362206	0.2179	0.9286801554152958	0.18874546672282136	0.1804	1.0192086127778994	0.16570906433422503	-0.0119	1.4890216455062073	0.8801216765267766	0.0301	1.3718612416387486	0.5313421565758124	0.129	1.2568411024765744	0.15396501197991241	0.023	1.2710634008385535	0.04293491263017058	0.2179	1.3246574814018113	0.04070359866694151	0.1804	1.217227442874265	0.10276779475417164	-0.0119	1.58411836276457	1.4087373829040568	0.0008	1.6535345509939432	1.6441673961367302	0.0655	1.585257714652735	1.4686539514481676	0.1076	1.4113147947180331	1.4195900802237604	-0.01275	1.2262104026430343	1.2157847944968465	0.0702	1.0310117865722042	1.064115206140555	0.1076	1.7440773181687867	1.3135763801825027	-0.01275	1.7111737166467966	1.0532140384060633	0.0702	1.6683487341610113	0.8504762761346656	0.1076
208	6.954732510288066	1.3939325669395164	0.9255569860527373	0.0301	1.2959104435765298	0.9567300059556376	0.0301	1.1614070931085279	0.6635609023042582	0.129	0.9991277047223651	0.24446137420381564	0.023	0.960906643938419	0.1456430792101585	0.2179	0.9268082143885622	0.18239712585786394	0.1804	1.0199276228630865	0.1625317713882087	-0.0119	1.488536414499042	0.8754347062795834	0.0301	1.372390720383465	0.526434183786439	0.129	1.2563682361574602	0.15358753608979991	0.023	1.273378224981787	0.04112501287011394	0.2179	1.323859926974384	0.04125004495861412	0.1804	1.2164569974613493	0.1018905619612898	-0.0119	1.5801900394157842	1.4081683120264754	0.0008	1.647452562271122	1.6480474517963672	0.0655	1.5772348768230715	1.4711071900671746	0.1076	1.407023768411602	1.4205751467670127	-0.01275	1.2231969459709418	1.2144574802149597	0.0702	1.0299201441537478	1.065332969433062	0.1076	1.7413847727478282	1.3126276124249718	-0.01275	1.7102381380401166	1.0528984830444117	0.0702	1.667175091553669	0.8493663434236384	0.1076
209	6.988168724279835	1.3919082456124776	0.9203615672104364	0.0301	1.2935539459546594	0.95127651910082	0.0301	1.1582775771851492	0.6580322218329477	0.129	1.0004176108950371	0.24037079870099545	0.023	0.9612592857368721	0.1464906525337373	0.2179	0.9292540557118865	0.1886062130716517	0.1804	1.020792253424437	0.1572321482718041	-0.0119	1.4874968731440097	0.8710308157736827	0.0301	1.3726209828556106	0.5222265466140729	0.129	1.2561935951390748	0.1541950860584079	0.023	1.2733955871947331	0.039948711938747855	0.2179	1.3228870734660092	0.04158579023495282	0.1804	1.21673264499689	0.10337825169849017	-0.0119	1.5746326513064068	1.4093781755010808	0.0008	1.637207278513786	1.6529215223628406	0.0655	1.5659897121941266	1.4739333490000073	0.1076	1.401465995679667	1.4223444049183207	-0.01275	1.2185190127416459	1.211671817544441	0.0702	1.0269607140866326	1.0644875441225299	0.1076	1.7375934207672679	1.315248824426435	-0.01275	1.707826724066298	1.0523620166214653	0.0702	1.6660172089156253	0.8478172893111058	0.1076
210	7.021604938271605	1.3892125736256002	0.9162318873960952	0.0301	1.2910956775839166	0.9459153182435394	0.0301	1.157538373582168	0.661489905502429	0.129	1.0040853408963173	0.2403977904673413	0.023	0.9649239396842224	0.14085478232553494	0.2179	0.9310111490842193	0.19504153484865425	0.1804	1.0176414108101972	0.13817243755209044	-0.0119	1.4861324078274396	0.8677184883765807	0.0301	1.3729589451908	0.5196388941407508	0.129	1.2563261291572798	0.155639456973901	0.023	1.2712040507475428	0.040677799396698834	0.2179	1.3226629694650047	0.04138960028229792	0.1804	1.2170398369300006	0.10572871266971563	-0.0119	1.5687573256379375	1.4112739009846014	0.0008	1.6232047537364795	1.6570256626573119	0.0655	1.5517716472740288	1.475740492700364	0.1076	1.3956975363278146	1.4224662151256728	-0.01275	1.2138069260257114	1.2100822539224396	0.0702	1.023516106004858	1.0627712633816584	0.1076	1.7333093194750384	1.3205417351191129	-0.01275	1.7052414549882797	1.0506728447693892	0.0702	1.664714097231654	0.8462595540995438	0.1076
